<svg width="11" height="8" viewBox="0 0 11 8" fill="none" xmlns="http://www.w3.org/2000/svg">
<path d="M10 0.25H1C0.801088 0.25 0.610322 0.329018 0.46967 0.46967C0.329018 0.610322 0.25 0.801088 0.25 1V7C0.25 7.19891 0.329018 7.38968 0.46967 7.53033C0.610322 7.67098 0.801088 7.75 1 7.75H10C10.1989 7.75 10.3897 7.67098 10.5303 7.53033C10.671 7.38968 10.75 7.19891 10.75 7V1C10.75 0.801088 10.671 0.610322 10.5303 0.46967C10.3897 0.329018 10.1989 0.25 10 0.25ZM9.175 1L5.5 3.5425L1.825 1H9.175ZM1 7V1.34125L5.28625 4.3075C5.34902 4.35105 5.4236 4.37438 5.5 4.37438C5.5764 4.37438 5.65098 4.35105 5.71375 4.3075L10 1.34125V7H1Z" fill="#636262"/>
</svg>
